<svg xmlns="http://www.w3.org/2000/svg" viewBox="0 0 1254 1254" width="1254" height="1254" role="img" aria-label="mist">
<title>mist</title>
<g id="house"><path d="M482.0,823.9C461.8,821.7 448.6,811.9 444.5,796.3C442.7,789.5 442.4,733.7 443.9,691.5C446.6,618.4 447.3,593.2 446.6,589.8C445.5,583.7 443.5,584.1 435.5,592.5C431.5,596.6 427.6,600.0 426.7,600.0C424.7,600.0 421.0,596.5 421.0,594.7C421.0,592.7 426.3,585.0 431.1,580.0C438.0,572.9 461.4,551.9 492.5,525.0C503.5,515.5 518.6,502.2 526.0,495.5C533.4,488.8 549.2,474.6 561.0,464.0C572.8,453.4 588.9,438.6 596.8,431.1C612.1,416.5 617.2,412.6 622.9,411.0C631.4,408.6 636.0,410.6 649.5,422.5C655.0,427.4 667.4,437.9 677.0,445.8C686.6,453.8 698.7,464.1 703.8,468.7C712.4,476.4 714.9,478.1 715.1,476.2C715.1,475.8 715.2,471.1 715.3,465.8C715.5,454.7 716.9,451.9 723.6,448.5C727.0,446.8 729.2,446.5 740.9,446.7C756.7,447.0 760.4,448.2 763.5,454.5C765.4,458.2 765.5,460.5 765.5,490.5C765.6,526.1 765.3,524.6 772.7,532.6C774.8,534.9 782.1,541.7 789.0,547.6C809.1,565.1 814.6,570.9 816.0,575.8C817.7,582.3 815.1,588.0 810.5,588.0C807.7,588.0 806.2,586.2 805.3,581.9C804.3,576.8 803.1,575.4 790.0,564.0C770.6,547.0 756.6,532.3 755.0,527.0C753.9,523.5 753.7,515.9 753.9,492.3C754.2,455.7 755.2,458.0 740.5,458.0C732.1,458.0 730.7,458.3 728.9,460.1C726.9,462.1 726.8,463.0 727.3,472.4C728.3,488.0 725.7,494.0 717.9,494.0C713.5,494.0 711.7,492.7 698.5,480.0C693.0,474.8 680.6,463.8 670.8,455.8C661.1,447.7 649.0,437.3 643.8,432.6C634.5,424.0 630.1,421.6 625.8,422.7C622.2,423.6 616.1,428.2 608.4,435.6C591.3,452.3 514.3,521.7 484.1,547.9C451.4,576.1 453.6,573.4 456.6,582.0C458.1,586.0 458.2,591.2 457.6,626.5C457.2,648.5 456.5,673.9 456.0,683.0C454.7,706.9 454.7,789.5 456.1,794.5C458.4,802.8 465.2,808.5 476.0,811.1C483.2,812.8 564.7,812.9 613.0,811.2C639.1,810.3 652.8,810.2 669.3,811.1C699.6,812.6 743.4,811.8 757.1,809.5C767.2,807.7 767.9,807.7 770.4,809.3C774.7,812.2 773.3,817.3 767.6,819.4C756.6,823.3 714.3,824.9 675.2,823.0C653.3,821.9 641.7,821.9 607.6,823.0C564.0,824.4 491.2,824.9 482.0,823.9Z" fill="currentColor" fill-rule="evenodd"/></g>
<g id="mist"><path d="M792.0,720.8C787.6,718.5 785.7,712.9 785.1,700.1L784.5,688.5L779.5,688.5C775.2,688.5 774.5,688.2 774.2,686.4C773.8,683.6 777.1,680.9 782.0,680.3C784.3,680.0 786.3,679.2 786.5,678.6C786.6,678.0 787.5,674.1 788.5,670.0C790.5,661.0 791.5,659.0 793.9,659.0C797.8,659.0 798.5,661.6 796.7,669.2C795.7,673.0 795.2,676.6 795.5,677.0C796.0,677.9 797.9,677.7 810.3,675.8C818.1,674.7 820.3,675.6 819.8,679.9C819.5,682.4 819.1,682.5 812.0,683.2C807.9,683.7 803.2,684.4 801.6,685.0C800.0,685.5 797.6,686.0 796.3,686.0C792.9,686.0 791.8,689.9 792.2,700.8C792.5,709.7 792.6,710.3 795.4,712.7C798.8,715.6 801.5,715.3 807.2,711.4C814.0,706.7 820.1,710.1 814.8,715.7C811.4,719.4 808.2,720.7 801.0,721.4C796.5,721.9 793.7,721.7 792.0,720.8ZM593.2,717.7C592.0,716.4 591.0,714.7 591.0,713.9C591.0,711.0 586.9,696.7 584.9,692.9C583.3,689.7 582.4,689.0 580.1,689.0C578.5,689.0 576.4,689.7 575.5,690.6C572.9,693.2 569.3,701.2 568.5,706.0C567.6,711.5 566.5,713.0 563.4,713.0C560.4,713.0 559.0,710.3 559.0,704.8C559.0,700.0 554.2,689.7 551.7,689.2C550.8,689.0 549.3,690.9 547.7,694.2C545.6,698.3 545.0,701.2 544.8,707.4C544.6,713.6 544.1,715.5 542.7,716.4C541.5,717.2 540.5,717.2 539.2,716.4C537.9,715.5 537.4,713.6 537.2,707.4C537.1,703.1 537.3,696.8 537.7,693.5C538.4,688.7 538.9,687.5 540.5,687.1C541.6,686.9 543.8,685.7 545.3,684.4C549.2,681.1 554.9,681.2 558.9,684.6C560.6,686.0 562.0,687.8 562.0,688.5C562.0,689.2 562.6,690.3 563.3,690.9C564.4,691.7 565.4,691.0 568.0,687.5C571.6,682.7 572.0,682.5 579.2,681.5C583.6,680.8 584.0,681.0 588.3,684.9C590.8,687.2 593.0,690.0 593.3,691.3C593.6,692.5 594.5,695.5 595.3,698.0C598.0,706.2 599.3,715.6 598.1,717.9C596.6,720.6 595.9,720.5 593.2,717.7ZM707.0,718.1C703.8,717.6 703.5,717.2 703.2,713.9C702.8,709.4 704.7,708.4 709.3,710.6C712.0,711.9 713.4,712.0 716.6,711.1C721.1,709.9 725.0,706.7 725.0,704.3C725.0,702.1 718.3,696.1 713.2,693.8C707.5,691.2 705.6,688.2 706.5,683.0C707.3,678.4 711.8,672.5 715.3,671.5C716.5,671.1 718.5,670.4 719.6,669.8C722.3,668.5 732.6,670.5 733.4,672.5C734.3,675.0 731.1,677.0 726.4,677.0C721.3,677.0 718.3,678.2 715.8,681.4C713.3,684.5 713.6,685.8 717.2,687.5C729.5,693.4 733.0,696.9 733.0,703.3C733.0,712.5 725.6,719.1 715.6,718.9C712.8,718.8 708.9,718.5 707.0,718.1ZM646.9,713.9C646.3,712.7 645.6,706.5 645.3,700.1C644.7,687.4 645.4,685.5 650.2,686.2C652.4,686.5 652.5,686.9 653.0,699.5C653.3,706.6 653.2,713.3 652.8,714.2C651.6,716.7 648.3,716.4 646.9,713.9ZM645.6,666.1C643.1,663.4 643.9,659.7 647.2,658.6C650.6,657.4 653.0,659.2 653.0,662.9C653.0,667.9 648.8,669.7 645.6,666.1Z" fill="#7d9bd6" fill-rule="evenodd"/></g>
</svg>
